<svg width="24" height="24" viewBox="0 0 24 24" fill="none" xmlns="http://www.w3.org/2000/svg">
<path d="M20.9461 8.30502C20.936 7.54764 20.7942 6.79779 20.5271 6.08902C20.2954 5.49117 19.9416 4.94822 19.4883 4.49485C19.0349 4.04148 18.4919 3.68767 17.8941 3.45602C17.1944 3.19338 16.4553 3.05136 15.7081 3.03602C14.7461 2.99302 14.4411 2.98102 11.9991 2.98102C9.55709 2.98102 9.24409 2.98102 8.28909 3.03602C7.54225 3.05147 6.80344 3.19349 6.10409 3.45602C5.50615 3.68751 4.96311 4.04126 4.50973 4.49465C4.05634 4.94804 3.70258 5.49108 3.47109 6.08902C3.20792 6.78815 3.06622 7.52713 3.05209 8.27402C3.00909 9.23702 2.99609 9.54202 2.99609 11.984C2.99609 14.426 2.99609 14.738 3.05209 15.694C3.06709 16.442 3.20809 17.18 3.47109 17.881C3.70297 18.4788 4.05699 19.0216 4.51053 19.4748C4.96407 19.928 5.50716 20.2816 6.10509 20.513C6.80253 20.7862 7.54147 20.9384 8.29009 20.963C9.25309 21.006 9.55809 21.019 12.0001 21.019C14.4421 21.019 14.7551 21.019 15.7101 20.963C16.4572 20.9483 17.1965 20.8066 17.8961 20.544C18.4938 20.3121 19.0366 19.9582 19.4899 19.5049C19.9433 19.0515 20.2972 18.5087 20.5291 17.911C20.7921 17.211 20.9331 16.473 20.9481 15.724C20.9911 14.762 21.0041 14.457 21.0041 12.014C21.0021 9.57202 21.0021 9.26202 20.9461 8.30502ZM11.9931 16.602C9.43909 16.602 7.37009 14.533 7.37009 11.979C7.37009 9.42502 9.43909 7.35602 11.9931 7.35602C13.2192 7.35602 14.3951 7.84308 15.262 8.71006C16.129 9.57704 16.6161 10.7529 16.6161 11.979C16.6161 13.2051 16.129 14.381 15.262 15.248C14.3951 16.115 13.2192 16.602 11.9931 16.602ZM16.8001 8.26302C16.6585 8.26315 16.5183 8.23536 16.3874 8.18123C16.2566 8.1271 16.1377 8.0477 16.0375 7.94757C15.9374 7.84745 15.858 7.72855 15.8039 7.59771C15.7498 7.46686 15.722 7.32662 15.7221 7.18502C15.7221 7.04352 15.75 6.90341 15.8041 6.77268C15.8583 6.64195 15.9376 6.52317 16.0377 6.42311C16.1377 6.32306 16.2565 6.24369 16.3873 6.18954C16.518 6.13539 16.6581 6.10752 16.7996 6.10752C16.9411 6.10752 17.0812 6.13539 17.2119 6.18954C17.3427 6.24369 17.4614 6.32306 17.5615 6.42311C17.6616 6.52317 17.7409 6.64195 17.7951 6.77268C17.8492 6.90341 17.8771 7.04352 17.8771 7.18502C17.8771 7.78102 17.3951 8.26302 16.8001 8.26302Z" fill="#0C84DC"/>
<path d="M11.9932 14.982C13.6517 14.982 14.9962 13.6375 14.9962 11.979C14.9962 10.3205 13.6517 8.97601 11.9932 8.97601C10.3347 8.97601 8.99023 10.3205 8.99023 11.979C8.99023 13.6375 10.3347 14.982 11.9932 14.982Z" fill="#0C84DC"/>
</svg>
