<svg width="24" height="24" viewBox="0 0 24 24" fill="none" xmlns="http://www.w3.org/2000/svg">
<path d="M19.633 7.99698C19.646 8.17198 19.646 8.34598 19.646 8.51998C19.646 13.845 15.593 19.981 8.186 19.981C5.904 19.981 3.784 19.32 2 18.172C2.324 18.209 2.636 18.222 2.973 18.222C4.78599 18.2264 6.54765 17.6201 7.974 16.501C7.13342 16.4858 6.31858 16.2084 5.64324 15.7077C4.9679 15.207 4.46578 14.5079 4.207 13.708C4.456 13.745 4.706 13.77 4.968 13.77C5.329 13.77 5.692 13.72 6.029 13.633C5.11676 13.4488 4.29647 12.9543 3.70762 12.2337C3.11876 11.513 2.79769 10.6106 2.799 9.67998V9.62998C3.336 9.92898 3.959 10.116 4.619 10.141C4.06609 9.77357 3.61272 9.27501 3.29934 8.68977C2.98596 8.10454 2.82231 7.45084 2.823 6.78698C2.823 6.03898 3.022 5.35298 3.371 4.75498C4.38314 6 5.6455 7.01854 7.07634 7.74464C8.50717 8.47074 10.0746 8.8882 11.677 8.96998C11.615 8.66998 11.577 8.35898 11.577 8.04698C11.5767 7.51794 11.6807 6.99404 11.8831 6.50522C12.0854 6.0164 12.3821 5.57226 12.7562 5.19817C13.1303 4.82408 13.5744 4.52739 14.0632 4.32506C14.5521 4.12273 15.076 4.01872 15.605 4.01898C16.765 4.01898 17.812 4.50498 18.548 5.29098C19.4498 5.1166 20.3145 4.7874 21.104 4.31798C20.8034 5.2488 20.1738 6.03809 19.333 6.53798C20.1328 6.44676 20.9144 6.23643 21.652 5.91398C21.1011 6.71708 20.4185 7.42133 19.633 7.99698Z" fill="#0C84DC"/>
</svg>
